<svg width="52" height="52" viewBox="0 0 52 52" fill="none" xmlns="http://www.w3.org/2000/svg">
<path d="M41.6 42.1H42.1V41.6V31.2V30.7H41.6H31.2H30.7V31.2V41.6V42.1H31.2H41.6ZM41.6 21.3H42.1V20.8V10.4V9.9H41.6H31.2H30.7V10.4V20.8V21.3H31.2H41.6ZM21.3 51.5V0.5H51.5V51.5H21.3Z" stroke="#C778DD"/>
<path d="M20.8 42.1H21.3V41.6V31.2V30.7H20.8H10.4H9.9V31.2V41.6V42.1H10.4H20.8ZM20.8 21.3H21.3V20.8V10.4V9.9H20.8H10.4H9.9V10.4V20.8V21.3H10.4H20.8ZM0.5 51.5V0.5H30.7V51.5H0.5Z" stroke="#C778DD"/>
</svg>
